<svg width="25" height="25" viewBox="0 0 25 25" fill="none" xmlns="http://www.w3.org/2000/svg">
<path d="M20.1235 10.4754L21.4997 19.4181C21.5432 19.7012 21.5251 19.9903 21.4465 20.2656C21.3679 20.541 21.2307 20.7961 21.0443 21.0136C20.8579 21.231 20.6268 21.4055 20.3667 21.5253C20.1066 21.6451 19.8236 21.7072 19.5373 21.7075H6.28218C5.99565 21.7075 5.7125 21.6456 5.45214 21.5259C5.19179 21.4063 4.96038 21.2318 4.77379 21.0143C4.5872 20.7969 4.44984 20.5416 4.37113 20.2661C4.29242 19.9906 4.27422 19.7013 4.31777 19.4181L5.69395 10.4754C5.76614 10.006 6.00405 9.578 6.36458 9.26887C6.72512 8.95973 7.18444 8.78994 7.65936 8.79023H18.1601C18.6348 8.79017 19.0939 8.96008 19.4543 9.26919C19.8146 9.5783 20.0523 10.0062 20.1245 10.4754H20.1235Z" stroke="black" stroke-width="1.05208" stroke-linecap="round" stroke-linejoin="round"/>
<path d="M14.897 5.80921C14.897 5.28216 14.6876 4.77669 14.315 4.404C13.9423 4.03132 13.4368 3.82195 12.9098 3.82195C12.3827 3.82195 11.8772 4.03132 11.5045 4.404C11.1319 4.77669 10.9225 5.28216 10.9225 5.80921" stroke="black" stroke-width="1.05208" stroke-linecap="round" stroke-linejoin="round"/>
<circle cx="19.2222" cy="3.6467" r="2.10417" fill="black"/>
</svg>
