<svg width="37" height="37" viewBox="0 0 37 37" fill="none" xmlns="http://www.w3.org/2000/svg">
<path d="M18.7083 2.80816C15.5524 2.80816 12.4674 3.744 9.8433 5.49733C7.21925 7.25066 5.17406 9.74274 3.96634 12.6584C2.75862 15.5741 2.44263 18.7825 3.05832 21.8777C3.67401 24.973 5.19372 27.8162 7.42529 30.0478C9.65687 32.2793 12.5001 33.7991 15.5953 34.4148C18.6906 35.0304 21.899 34.7144 24.8146 33.5067C27.7303 32.299 30.2224 30.2538 31.9757 27.6298C33.7291 25.0057 34.6649 21.9207 34.6649 18.7648C34.6649 14.5328 32.9838 10.4742 29.9913 7.48174C26.9989 4.4893 22.9403 2.80816 18.7083 2.80816ZM18.6057 14.7186C18.3518 14.7186 18.1083 14.8195 17.9288 14.999C17.7492 15.1786 17.6483 15.4221 17.6483 15.676V21.5344C17.6483 22.6075 17.2221 23.6366 16.4633 24.3954C15.7045 25.1542 14.6753 25.5805 13.6022 25.5805C12.5291 25.5805 11.4999 25.1542 10.7412 24.3954C9.98235 23.6366 9.55606 22.6075 9.55606 21.5344V18.8673H12.6448V21.4204C12.6448 21.6743 12.7457 21.9178 12.9252 22.0974C13.1048 22.2769 13.3483 22.3778 13.6022 22.3778C13.8561 22.3778 14.0996 22.2769 14.2792 22.0974C14.4587 21.9178 14.5596 21.6743 14.5596 21.4204V15.7216C14.6146 14.6871 15.0642 13.7131 15.8159 13.0003C16.5676 12.2875 17.5641 11.8901 18.6 11.8901C19.636 11.8901 20.6325 12.2875 21.3842 13.0003C22.1359 13.7131 22.5855 14.6871 22.6405 15.7216V16.8614L20.8397 17.4426L19.5631 16.8614V15.7216C19.5677 15.5925 19.5464 15.4638 19.5005 15.343C19.4545 15.2222 19.3849 15.1119 19.2957 15.0184C19.2065 14.925 19.0995 14.8503 18.981 14.7988C18.8625 14.7473 18.7349 14.7201 18.6057 14.7186ZM27.644 21.5572C27.589 22.5916 27.1394 23.5656 26.3877 24.2785C25.636 24.9913 24.6395 25.3886 23.6036 25.3886C22.5676 25.3886 21.5712 24.9913 20.8195 24.2785C20.0678 23.5656 19.6181 22.5916 19.5631 21.5572V18.9243L20.8397 19.5056L22.6405 18.9243V21.5344C22.6405 21.7883 22.7413 22.0318 22.9209 22.2113C23.1004 22.3909 23.344 22.4918 23.5979 22.4918C23.8518 22.4918 24.0953 22.3909 24.2749 22.2113C24.4544 22.0318 24.5553 21.7883 24.5553 21.5344V18.9813H27.644V21.5572Z" fill="#535353"/>
</svg>
